<svg id="visual" viewBox="0 0 960 540" width="960" height="540" xmlns="http://www.w3.org/2000/svg" xmlns:xlink="http://www.w3.org/1999/xlink" version="1.1"><rect x="0" y="0" width="960" height="540" fill="#f8eac4"></rect><path d="M0 289L17.8 293.7C35.7 298.3 71.3 307.7 106.8 309C142.3 310.3 177.7 303.7 213.2 306.5C248.7 309.3 284.3 321.7 320 322.3C355.7 323 391.3 312 426.8 312C462.3 312 497.7 323 533.2 323.2C568.7 323.3 604.3 312.7 640 314.5C675.7 316.3 711.3 330.7 746.8 332.5C782.3 334.3 817.7 323.7 853.2 317C888.7 310.3 924.3 307.7 942.2 306.3L960 305L960 541L942.2 541C924.3 541 888.7 541 853.2 541C817.7 541 782.3 541 746.8 541C711.3 541 675.7 541 640 541C604.3 541 568.7 541 533.2 541C497.7 541 462.3 541 426.8 541C391.3 541 355.7 541 320 541C284.3 541 248.7 541 213.2 541C177.7 541 142.3 541 106.8 541C71.3 541 35.7 541 17.8 541L0 541Z" fill="#84724a"></path><path d="M0 369L17.8 363C35.7 357 71.3 345 106.8 341C142.3 337 177.7 341 213.2 340.5C248.7 340 284.3 335 320 333.8C355.7 332.7 391.3 335.3 426.8 340.8C462.3 346.3 497.7 354.7 533.2 353.7C568.7 352.7 604.3 342.3 640 336.8C675.7 331.3 711.3 330.7 746.8 338.3C782.3 346 817.7 362 853.2 367.5C888.7 373 924.3 368 942.2 365.5L960 363L960 541L942.2 541C924.3 541 888.7 541 853.2 541C817.7 541 782.3 541 746.8 541C711.3 541 675.7 541 640 541C604.3 541 568.7 541 533.2 541C497.7 541 462.3 541 426.8 541C391.3 541 355.7 541 320 541C284.3 541 248.7 541 213.2 541C177.7 541 142.3 541 106.8 541C71.3 541 35.7 541 17.8 541L0 541Z" fill="#4a4028"></path><path d="M0 388L17.8 391.5C35.7 395 71.3 402 106.8 398.5C142.3 395 177.7 381 213.2 378.3C248.7 375.7 284.3 384.3 320 387.5C355.7 390.7 391.3 388.3 426.8 384.3C462.3 380.3 497.7 374.7 533.2 374.7C568.7 374.7 604.3 380.3 640 381.3C675.7 382.3 711.3 378.7 746.8 377.2C782.3 375.7 817.7 376.3 853.2 377.5C888.7 378.7 924.3 380.3 942.2 381.2L960 382L960 541L942.2 541C924.3 541 888.7 541 853.2 541C817.7 541 782.3 541 746.8 541C711.3 541 675.7 541 640 541C604.3 541 568.7 541 533.2 541C497.7 541 462.3 541 426.8 541C391.3 541 355.7 541 320 541C284.3 541 248.7 541 213.2 541C177.7 541 142.3 541 106.8 541C71.3 541 35.7 541 17.8 541L0 541Z" fill="#191304"></path><path d="M0 411L17.8 412.5C35.7 414 71.3 417 106.8 418.3C142.3 419.7 177.7 419.3 213.2 420.3C248.7 421.3 284.3 423.7 320 423C355.7 422.3 391.3 418.7 426.8 418.7C462.3 418.7 497.7 422.3 533.2 424C568.7 425.7 604.3 425.3 640 426.5C675.7 427.7 711.3 430.3 746.8 432.7C782.3 435 817.7 437 853.2 434.5C888.7 432 924.3 425 942.2 421.5L960 418L960 541L942.2 541C924.3 541 888.7 541 853.2 541C817.7 541 782.3 541 746.8 541C711.3 541 675.7 541 640 541C604.3 541 568.7 541 533.2 541C497.7 541 462.3 541 426.8 541C391.3 541 355.7 541 320 541C284.3 541 248.7 541 213.2 541C177.7 541 142.3 541 106.8 541C71.3 541 35.7 541 17.8 541L0 541Z" fill="#191304"></path><path d="M0 465L17.8 464.2C35.7 463.3 71.3 461.7 106.8 457.7C142.3 453.7 177.7 447.3 213.2 445.5C248.7 443.7 284.3 446.3 320 451.8C355.7 457.3 391.3 465.7 426.8 468.2C462.3 470.7 497.7 467.3 533.2 462.7C568.7 458 604.3 452 640 452.3C675.7 452.7 711.3 459.3 746.8 459.3C782.3 459.3 817.7 452.7 853.2 453.3C888.7 454 924.3 462 942.2 466L960 470L960 541L942.2 541C924.3 541 888.7 541 853.2 541C817.7 541 782.3 541 746.8 541C711.3 541 675.7 541 640 541C604.3 541 568.7 541 533.2 541C497.7 541 462.3 541 426.8 541C391.3 541 355.7 541 320 541C284.3 541 248.7 541 213.2 541C177.7 541 142.3 541 106.8 541C71.3 541 35.7 541 17.8 541L0 541Z" fill="#4a4028"></path><path d="M0 486L17.8 486C35.7 486 71.3 486 106.8 488.5C142.3 491 177.7 496 213.2 498.7C248.7 501.3 284.3 501.7 320 500.5C355.7 499.3 391.3 496.7 426.8 495.8C462.3 495 497.7 496 533.2 493.8C568.7 491.7 604.3 486.3 640 485.7C675.7 485 711.3 489 746.8 492.2C782.3 495.3 817.7 497.7 853.2 497.7C888.7 497.7 924.3 495.3 942.2 494.2L960 493L960 541L942.2 541C924.3 541 888.7 541 853.2 541C817.7 541 782.3 541 746.8 541C711.3 541 675.7 541 640 541C604.3 541 568.7 541 533.2 541C497.7 541 462.3 541 426.8 541C391.3 541 355.7 541 320 541C284.3 541 248.7 541 213.2 541C177.7 541 142.3 541 106.8 541C71.3 541 35.7 541 17.8 541L0 541Z" fill="#84724a"></path></svg>